<svg width="20" height="20" viewBox="0 0 20 20" fill="none" xmlns="http://www.w3.org/2000/svg">
<path fill-rule="evenodd" clip-rule="evenodd" d="M19.5308 18.4696L14.8368 13.7765C17.6631 10.3833 17.3207 5.36716 14.0594 2.38957C10.798 -0.588013 5.77157 -0.473778 2.64889 2.64889C-0.473778 5.77157 -0.588013 10.798 2.38957 14.0594C5.36716 17.3207 10.3833 17.6631 13.7765 14.8368L18.4696 19.5308C18.7627 19.8239 19.2378 19.8239 19.5308 19.5308C19.8239 19.2378 19.8239 18.7627 19.5308 18.4696ZM1.75022 8.50022C1.75022 4.7723 4.7723 1.75022 8.50022 1.75022C12.2281 1.75022 15.2502 4.7723 15.2502 8.50022C15.2502 12.2281 12.2281 15.2502 8.50022 15.2502C4.77401 15.2461 1.75436 12.2264 1.75022 8.50022Z" fill="#994D52"/>
</svg>
